<svg width="2951" height="700" viewBox="0 0 2951 700" fill="none" xmlns="http://www.w3.org/2000/svg">
<path d="M508.8 93H227.2C163.577 93 112 144.577 112 208.2V489.8C112 553.423 163.577 605 227.2 605H508.8C572.423 605 624 553.423 624 489.8V208.2C624 144.577 572.423 93 508.8 93Z" fill="#0A0A0A"/>
<path d="M508.8 93H227.2C163.577 93 112 144.577 112 208.2V489.8C112 553.423 163.577 605 227.2 605H508.8C572.423 605 624 553.423 624 489.8V208.2C624 144.577 572.423 93 508.8 93Z" fill="url(#paint0_radial_4_45)"/>
<path d="M226.04 331.52C226.04 325.158 220.882 320 214.52 320C208.158 320 203 325.158 203 331.52V366.08C203 372.442 208.158 377.6 214.52 377.6C220.882 377.6 226.04 372.442 226.04 366.08V331.52Z" fill="white"/>
<path d="M264.44 308.52C264.44 302.158 259.282 297 252.92 297C246.558 297 241.4 302.158 241.4 308.52V389.16C241.4 395.522 246.558 400.68 252.92 400.68C259.282 400.68 264.44 395.522 264.44 389.16V308.52Z" fill="white"/>
<path d="M302.84 285.52C302.84 279.158 297.682 274 291.32 274C284.958 274 279.8 279.158 279.8 285.52V412.24C279.8 418.602 284.958 423.76 291.32 423.76C297.682 423.76 302.84 418.602 302.84 412.24V285.52Z" fill="white"/>
<path d="M341.24 262.52C341.24 256.158 336.082 251 329.72 251C323.358 251 318.2 256.158 318.2 262.52V435.32C318.2 441.682 323.358 446.84 329.72 446.84C336.082 446.84 341.24 441.682 341.24 435.32V262.52Z" fill="white"/>
<path d="M379.64 245.52C379.64 239.158 374.482 234 368.12 234C361.758 234 356.6 239.158 356.6 245.52V452.88C356.6 459.242 361.758 464.4 368.12 464.4C374.482 464.4 379.64 459.242 379.64 452.88V245.52Z" fill="white"/>
<path d="M418.04 262.52C418.04 256.158 412.882 251 406.52 251C400.158 251 395 256.158 395 262.52V435.32C395 441.682 400.158 446.84 406.52 446.84C412.882 446.84 418.04 441.682 418.04 435.32V262.52Z" fill="white"/>
<path d="M456.44 285.52C456.44 279.158 451.282 274 444.92 274C438.558 274 433.4 279.158 433.4 285.52V412.24C433.4 418.602 438.558 423.76 444.92 423.76C451.282 423.76 456.44 418.602 456.44 412.24V285.52Z" fill="white"/>
<path d="M494.84 308.52C494.84 302.158 489.682 297 483.32 297C476.958 297 471.8 302.158 471.8 308.52V389.16C471.8 395.522 476.958 400.68 483.32 400.68C489.682 400.68 494.84 395.522 494.84 389.16V308.52Z" fill="white"/>
<path d="M533.24 331.52C533.24 325.158 528.082 320 521.72 320C515.358 320 510.2 325.158 510.2 331.52V366.08C510.2 372.442 515.358 377.6 521.72 377.6C528.082 377.6 533.24 372.442 533.24 366.08V331.52Z" fill="white"/>
<path d="M789.534 428V423.06L808.801 413.179V287.202H783.606L760.634 315.609H753.964L760.881 276.827H892.292L885.376 315.609H878.706L865.121 287.202H836.467V413.179L855.734 423.06V428H789.534ZM900.44 428V423.06L916.496 414.414V275.839L898.958 271.146V265.959L937.739 256.819H945.396L942.679 283.497V327.959C950.419 323.019 957.5 319.396 963.922 317.091C970.345 314.785 975.779 313.632 980.225 313.632C986.318 313.632 991.67 314.703 996.281 316.844C1001.06 318.82 1004.76 321.949 1007.4 326.23C1010.2 330.347 1011.6 335.534 1011.6 341.792V414.414L1027.65 423.06V428H978.743V423.06L985.413 414.414V352.908C985.413 347.967 984.425 343.933 982.449 340.804C980.637 337.51 978.085 335.04 974.791 333.394C971.498 331.582 967.875 330.676 963.922 330.676C960.629 330.676 957.088 331.17 953.301 332.158C949.678 332.982 946.137 334.217 942.679 335.864V414.414L957.5 423.06V428H900.44ZM1089.11 431.211C1079.07 431.211 1070.34 429.07 1062.93 424.789C1055.52 420.343 1049.84 413.92 1045.88 405.522C1041.93 397.123 1039.95 386.913 1039.95 374.892C1039.95 362.047 1042.42 351.096 1047.37 342.039C1052.47 332.817 1059.55 325.736 1068.61 320.796C1077.67 315.856 1088.04 313.385 1099.73 313.385C1109.94 313.385 1118.67 315.609 1125.92 320.055C1133.16 324.336 1138.76 330.759 1142.71 339.322C1146.66 347.72 1148.64 357.93 1148.64 369.952C1148.64 382.632 1146.09 393.583 1140.98 402.805C1136.04 411.862 1129.13 418.86 1120.23 423.801C1111.34 428.741 1100.97 431.211 1089.11 431.211ZM1097.51 417.872C1103.6 417.872 1108.38 416.72 1111.84 414.414C1115.46 412.109 1118.01 407.992 1119.49 402.064C1121.14 395.97 1121.96 387.407 1121.96 376.374C1121.96 360.236 1119.25 347.967 1113.81 339.569C1108.38 331.17 1100.8 326.971 1091.09 326.971C1085.16 326.971 1080.38 328.124 1076.76 330.429C1073.3 332.735 1070.75 336.852 1069.1 342.78C1067.46 348.708 1066.63 357.272 1066.63 368.47C1066.63 384.608 1069.35 396.876 1074.78 405.275C1080.38 413.673 1087.96 417.872 1097.51 417.872ZM1207.6 431.211C1199.2 431.211 1192.12 428.741 1186.35 423.801C1180.75 418.86 1177.95 411.944 1177.95 403.052V334.382L1160.91 327.712V323.019L1198.7 313.879H1206.36L1203.89 340.804V391.936C1203.89 396.712 1204.8 400.746 1206.61 404.04C1208.58 407.333 1211.14 409.886 1214.27 411.697C1217.56 413.344 1221.18 414.167 1225.13 414.167C1228.1 414.167 1231.23 413.838 1234.52 413.179C1237.98 412.356 1242.1 410.956 1246.87 408.98V334.382L1230.32 327.712V323.019L1267.62 313.879H1275.28L1272.81 340.804V412.438L1291.58 417.378V422.319L1254.53 431.211H1246.87V416.884C1238.64 421.825 1231.39 425.448 1225.13 427.753C1219.04 430.058 1213.2 431.211 1207.6 431.211ZM1336.24 480.614C1322.57 480.614 1312.52 478.309 1306.1 473.698C1299.68 469.087 1296.47 463.57 1296.47 457.148C1296.47 453.525 1297.46 449.984 1299.43 446.526C1301.57 443.233 1304.95 439.692 1309.56 435.904C1314.33 432.282 1320.76 428.412 1328.83 424.295C1322.24 422.154 1317.71 419.684 1315.24 416.884C1312.93 413.92 1311.78 410.462 1311.78 406.51C1311.78 403.216 1313.02 400.087 1315.49 397.123C1317.96 394.159 1322.4 390.042 1328.83 384.773C1323.72 383.62 1319.03 381.726 1314.75 379.091C1310.63 376.292 1307.34 372.669 1304.87 368.223C1302.56 363.776 1301.41 358.507 1301.41 352.414C1301.41 344.18 1303.63 337.181 1308.08 331.417C1312.52 325.489 1318.29 321.043 1325.37 318.079C1332.61 315.114 1340.35 313.632 1348.59 313.632C1355.01 313.632 1360.53 314.209 1365.14 315.361C1369.91 316.514 1373.87 318.326 1376.99 320.796L1411.58 310.174L1407.62 333.394H1402.44L1381.69 325.736C1384.65 328.536 1386.96 331.994 1388.6 336.111C1390.25 340.063 1391.07 344.427 1391.07 349.202C1391.07 356.613 1388.85 363.118 1384.4 368.717C1379.96 374.316 1374.11 378.679 1366.87 381.808C1359.62 384.773 1351.63 386.255 1342.91 386.255C1341.92 386.255 1340.85 386.255 1339.69 386.255C1338.54 386.09 1337.47 386.008 1336.48 386.008C1334.67 388.313 1333.27 390.371 1332.28 392.183C1331.46 393.994 1331.05 395.476 1331.05 396.629C1331.05 398.77 1332.28 400.334 1334.75 401.322C1337.22 402.311 1341.67 403.463 1348.09 404.781L1370.08 406.51C1377.65 407.827 1383.66 409.556 1388.11 411.697C1392.56 413.838 1395.77 416.72 1397.74 420.343C1399.72 423.801 1400.71 428.082 1400.71 433.187C1400.71 438.457 1398.98 443.891 1395.52 449.49C1392.06 455.089 1387.37 460.194 1381.44 464.805C1375.51 469.581 1368.6 473.368 1360.69 476.168C1352.95 479.132 1344.8 480.614 1336.24 480.614ZM1349.08 464.311C1356 464.311 1362.01 463.405 1367.11 461.594C1372.38 459.947 1376.5 457.559 1379.46 454.431C1382.43 451.466 1383.91 448.008 1383.91 444.056C1383.91 441.256 1383 438.869 1381.19 436.893C1379.38 434.916 1376.34 433.352 1372.05 432.199C1368.6 431.541 1364.48 430.882 1359.7 430.223C1355.09 429.564 1350.56 428.906 1346.12 428.247C1344.31 428.082 1342.58 427.835 1340.93 427.506C1339.45 427.177 1337.97 426.93 1336.48 426.765C1330.88 430.058 1326.27 433.434 1322.65 436.893C1319.03 440.515 1317.22 444.138 1317.22 447.761C1317.22 452.043 1319.77 455.83 1324.87 459.124C1329.98 462.582 1338.05 464.311 1349.08 464.311ZM1349.08 376.127C1354.68 376.127 1358.88 374.645 1361.68 371.681C1364.64 368.552 1366.13 362.047 1366.13 352.167C1366.13 342.451 1363.9 335.123 1359.46 330.182C1355.17 325.242 1349.66 322.772 1342.91 322.772C1337.31 322.772 1333.11 324.419 1330.31 327.712C1327.51 331.006 1326.11 337.51 1326.11 347.226C1326.11 356.942 1328.33 364.188 1332.78 368.964C1337.22 373.739 1342.66 376.127 1349.08 376.127ZM1413.04 428V423.06L1429.1 414.414V275.839L1411.56 271.146V265.959L1450.34 256.819H1458L1455.28 283.497V327.959C1463.02 323.019 1470.1 319.396 1476.53 317.091C1482.95 314.785 1488.38 313.632 1492.83 313.632C1498.92 313.632 1504.27 314.703 1508.88 316.844C1513.66 318.82 1517.37 321.949 1520 326.23C1522.8 330.347 1524.2 335.534 1524.2 341.792V414.414L1540.25 423.06V428H1491.35V423.06L1498.02 414.414V352.908C1498.02 347.967 1497.03 343.933 1495.05 340.804C1493.24 337.51 1490.69 335.04 1487.39 333.394C1484.1 331.582 1480.48 330.676 1476.53 330.676C1473.23 330.676 1469.69 331.17 1465.9 332.158C1462.28 332.982 1458.74 334.217 1455.28 335.864V414.414L1470.1 423.06V428H1413.04ZM1593.35 431.211C1587.75 431.211 1582.48 430.058 1577.54 427.753C1572.6 425.448 1568.73 421.989 1565.93 417.378C1563.13 412.767 1561.81 407.086 1561.98 400.334L1563.21 326.724H1546.17V321.043L1582.23 296.341H1589.4L1589.15 316.844H1600.51L1627.19 315.609L1624.47 328.7L1600.51 326.724H1588.9L1587.92 392.924C1587.75 400.17 1589.64 405.522 1593.6 408.98C1597.55 412.438 1602.16 414.167 1607.43 414.167C1611.55 414.167 1614.92 413.838 1617.56 413.179C1620.36 412.52 1623.4 411.615 1626.7 410.462L1629.17 417.131C1625.05 419.602 1620.93 421.907 1616.82 424.048C1612.86 426.189 1608.91 427.918 1604.96 429.235C1601.01 430.552 1597.14 431.211 1593.35 431.211ZM1674.02 431.211C1667.1 431.211 1660.51 430.717 1654.25 429.729C1648 428.741 1642.89 427.424 1638.94 425.777L1643.39 400.087H1649.31L1666.36 420.096C1667.51 420.425 1668.99 420.754 1670.8 421.084C1672.78 421.413 1674.76 421.578 1676.73 421.578C1683.81 421.578 1689.33 420.343 1693.28 417.872C1697.23 415.402 1699.21 410.956 1699.21 404.534C1699.21 400.087 1697.81 396.3 1695.01 393.171C1692.38 389.877 1686.78 386.666 1678.21 383.537L1669.07 379.832C1660.02 376.703 1653.02 372.504 1648.08 367.234C1643.3 361.965 1640.92 355.295 1640.92 347.226C1640.92 340.475 1642.89 334.629 1646.84 329.688C1650.96 324.583 1656.39 320.631 1663.15 317.832C1670.06 315.032 1677.64 313.632 1685.87 313.632C1693.12 313.632 1699.95 314.209 1706.37 315.361C1712.8 316.514 1717.65 317.749 1720.95 319.067L1716.5 344.262H1710.82L1692.79 324.254C1691.64 323.925 1690.15 323.678 1688.34 323.513C1686.53 323.184 1684.39 323.019 1681.92 323.019C1669.73 323.019 1663.64 327.959 1663.64 337.84C1663.64 342.615 1665.45 346.65 1669.07 349.943C1672.7 353.237 1677.64 356.037 1683.9 358.342L1693.53 362.047C1703.25 365.341 1710.57 369.54 1715.51 374.645C1720.45 379.75 1722.92 386.419 1722.92 394.653C1722.92 402.228 1720.62 408.733 1716.01 414.167C1711.56 419.602 1705.63 423.801 1698.22 426.765C1690.81 429.729 1682.74 431.211 1674.02 431.211ZM1797.88 428V423.06L1816.16 413.673V291.154L1797.88 281.521V276.827H1836.42L1917.93 379.832V291.154L1898.42 281.768V276.827H1951.28V281.768L1933 291.154V428.741H1921.14L1831.48 314.867V413.673L1850.99 423.06V428H1797.88ZM2012.04 431.211C2001.99 431.211 1993.26 429.07 1985.85 424.789C1978.44 420.343 1972.76 413.92 1968.81 405.522C1964.86 397.123 1962.88 386.913 1962.88 374.892C1962.88 362.047 1965.35 351.096 1970.29 342.039C1975.4 332.817 1982.48 325.736 1991.53 320.796C2000.59 315.856 2010.97 313.385 2022.66 313.385C2032.87 313.385 2041.6 315.609 2048.84 320.055C2056.09 324.336 2061.69 330.759 2065.64 339.322C2069.59 347.72 2071.57 357.93 2071.57 369.952C2071.57 382.632 2069.01 393.583 2063.91 402.805C2058.97 411.862 2052.05 418.86 2043.16 423.801C2034.27 428.741 2023.89 431.211 2012.04 431.211ZM2020.44 417.872C2026.53 417.872 2031.3 416.72 2034.76 414.414C2038.38 412.109 2040.94 407.992 2042.42 402.064C2044.07 395.97 2044.89 387.407 2044.89 376.374C2044.89 360.236 2042.17 347.967 2036.74 339.569C2031.3 331.17 2023.73 326.971 2014.01 326.971C2008.08 326.971 2003.31 328.124 1999.69 330.429C1996.23 332.735 1993.68 336.852 1992.03 342.78C1990.38 348.708 1989.56 357.272 1989.56 368.47C1989.56 384.608 1992.28 396.876 1997.71 405.275C2003.31 413.673 2010.88 417.872 2020.44 417.872ZM2131.52 431.211C2125.92 431.211 2120.65 430.058 2115.71 427.753C2110.77 425.448 2106.9 421.989 2104.1 417.378C2101.3 412.767 2099.99 407.086 2100.15 400.334L2101.39 326.724H2084.34V321.043L2120.41 296.341H2127.57L2127.32 316.844H2138.69L2165.36 315.609L2162.65 328.7L2138.69 326.724H2127.08L2126.09 392.924C2125.92 400.17 2127.82 405.522 2131.77 408.98C2135.72 412.438 2140.33 414.167 2145.6 414.167C2149.72 414.167 2153.09 413.838 2155.73 413.179C2158.53 412.52 2161.58 411.615 2164.87 410.462L2167.34 417.131C2163.22 419.602 2159.11 421.907 2154.99 424.048C2151.04 426.189 2147.08 427.918 2143.13 429.235C2139.18 430.552 2135.31 431.211 2131.52 431.211ZM2232.57 428V423.06L2250.85 413.673V291.154L2232.57 281.521V276.827H2271.1L2352.62 379.832V291.154L2333.11 281.768V276.827H2385.97V281.768L2367.69 291.154V428.741H2355.83L2266.16 314.867V413.673L2285.68 423.06V428H2232.57ZM2446.72 431.211C2436.68 431.211 2427.95 429.07 2420.54 424.789C2413.13 420.343 2407.45 413.92 2403.5 405.522C2399.54 397.123 2397.57 386.913 2397.57 374.892C2397.57 362.047 2400.04 351.096 2404.98 342.039C2410.08 332.817 2417.16 325.736 2426.22 320.796C2435.28 315.856 2445.65 313.385 2457.35 313.385C2467.56 313.385 2476.28 315.609 2483.53 320.055C2490.77 324.336 2496.37 330.759 2500.33 339.322C2504.28 347.72 2506.25 357.93 2506.25 369.952C2506.25 382.632 2503.7 393.583 2498.6 402.805C2493.66 411.862 2486.74 418.86 2477.85 423.801C2468.96 428.741 2458.58 431.211 2446.72 431.211ZM2455.12 417.872C2461.22 417.872 2465.99 416.72 2469.45 414.414C2473.07 412.109 2475.62 407.992 2477.11 402.064C2478.75 395.97 2479.58 387.407 2479.58 376.374C2479.58 360.236 2476.86 347.967 2471.43 339.569C2465.99 331.17 2458.42 326.971 2448.7 326.971C2442.77 326.971 2438 328.124 2434.37 330.429C2430.92 332.735 2428.36 336.852 2426.72 342.78C2425.07 348.708 2424.25 357.272 2424.25 368.47C2424.25 384.608 2426.96 396.876 2432.4 405.275C2438 413.673 2445.57 417.872 2455.12 417.872ZM2566.21 431.211C2560.61 431.211 2555.34 430.058 2550.4 427.753C2545.46 425.448 2541.59 421.989 2538.79 417.378C2535.99 412.767 2534.67 407.086 2534.84 400.334L2536.07 326.724H2519.03V321.043L2555.09 296.341H2562.26L2562.01 316.844H2573.37L2600.05 315.609L2597.33 328.7L2573.37 326.724H2561.76L2560.78 392.924C2560.61 400.17 2562.5 405.522 2566.46 408.98C2570.41 412.438 2575.02 414.167 2580.29 414.167C2584.41 414.167 2587.78 413.838 2590.42 413.179C2593.22 412.52 2596.26 411.615 2599.56 410.462L2602.03 417.131C2597.91 419.602 2593.79 421.907 2589.68 424.048C2585.72 426.189 2581.77 427.918 2577.82 429.235C2573.87 430.552 2570 431.211 2566.21 431.211ZM2662.22 431.211C2652.51 431.211 2643.7 429.317 2635.79 425.53C2627.89 421.578 2621.55 415.485 2616.77 407.251C2612.16 398.852 2609.86 387.984 2609.86 374.645C2609.86 364.929 2611.26 356.366 2614.06 348.955C2616.86 341.38 2620.73 334.958 2625.67 329.688C2630.61 324.419 2636.29 320.466 2642.71 317.832C2649.13 315.032 2655.97 313.632 2663.21 313.632C2672.76 313.632 2680.42 315.361 2686.19 318.82C2692.11 322.278 2696.48 326.724 2699.28 332.158C2702.24 337.593 2704.05 343.439 2704.71 349.696C2705.37 355.954 2705.21 361.883 2704.22 367.482H2635.3C2635.3 378.35 2637.03 387.16 2640.49 393.912C2644.11 400.664 2648.89 405.604 2654.81 408.733C2660.91 411.697 2667.58 413.179 2674.82 413.179C2679.6 413.179 2684.29 412.52 2688.9 411.203C2693.68 409.886 2698.62 407.827 2703.72 405.028L2706.93 411.944C2700.18 417.049 2692.94 421.578 2685.2 425.53C2677.62 429.317 2669.96 431.211 2662.22 431.211ZM2635.3 358.342H2679.02C2679.02 350.932 2678.03 344.839 2676.06 340.063C2674.08 335.287 2671.28 331.664 2667.66 329.194C2664.04 326.724 2659.51 325.489 2654.07 325.489C2649.96 325.489 2646.58 326.395 2643.95 328.206C2641.31 330.018 2639.25 333.311 2637.77 338.087C2636.45 342.698 2635.63 349.449 2635.3 358.342ZM2760.97 431.211C2754.06 431.211 2747.47 430.717 2741.21 429.729C2734.96 428.741 2729.85 427.424 2725.9 425.777L2730.34 400.087H2736.27L2753.32 420.096C2754.47 420.425 2755.95 420.754 2757.76 421.084C2759.74 421.413 2761.72 421.578 2763.69 421.578C2770.77 421.578 2776.29 420.343 2780.24 417.872C2784.19 415.402 2786.17 410.956 2786.17 404.534C2786.17 400.087 2784.77 396.3 2781.97 393.171C2779.34 389.877 2773.74 386.666 2765.17 383.537L2756.03 379.832C2746.98 376.703 2739.98 372.504 2735.04 367.234C2730.26 361.965 2727.87 355.295 2727.87 347.226C2727.87 340.475 2729.85 334.629 2733.8 329.688C2737.92 324.583 2743.35 320.631 2750.11 317.832C2757.02 315.032 2764.6 313.632 2772.83 313.632C2780.08 313.632 2786.91 314.209 2793.33 315.361C2799.76 316.514 2804.61 317.749 2807.91 319.067L2803.46 344.262H2797.78L2779.75 324.254C2778.59 323.925 2777.11 323.678 2775.3 323.513C2773.49 323.184 2771.35 323.019 2768.88 323.019C2756.69 323.019 2750.6 327.959 2750.6 337.84C2750.6 342.615 2752.41 346.65 2756.03 349.943C2759.66 353.237 2764.6 356.037 2770.85 358.342L2780.49 362.047C2790.2 365.341 2797.53 369.54 2802.47 374.645C2807.41 379.75 2809.88 386.419 2809.88 394.653C2809.88 402.228 2807.58 408.733 2802.97 414.167C2798.52 419.602 2792.59 423.801 2785.18 426.765C2777.77 429.729 2769.7 431.211 2760.97 431.211Z" fill="#0A0A0A"/>
<defs>
<radialGradient id="paint0_radial_4_45" cx="0" cy="0" r="1" gradientUnits="userSpaceOnUse" gradientTransform="translate(291.2 272.2) scale(358.4)">
<stop stop-color="white" stop-opacity="0.08"/>
<stop offset="1" stop-opacity="0.3"/>
</radialGradient>
</defs>
</svg>
