<svg width="96" height="96" viewBox="0 0 96 96" fill="none" xmlns="http://www.w3.org/2000/svg">
<g clip-path="url(#clip0_1_6329)">
<g filter="url(#filter0_d_1_6329)">
<rect x="8" y="8.68994" width="81" height="39" rx="19.5" fill="url(#paint0_linear_1_6329)" shape-rendering="crispEdges"/>
<rect x="8.5" y="9.18994" width="80" height="38" rx="19" stroke="white" stroke-opacity="0.04" shape-rendering="crispEdges"/>
<g filter="url(#filter1_d_1_6329)">
<path d="M21.5 30.6899C20.1193 30.6899 19 29.5707 19 28.1899C19 26.8092 20.1193 25.6899 21.5 25.6899C22.8807 25.6899 24 26.8092 24 28.1899C24 29.5707 22.8807 30.6899 21.5 30.6899Z" fill="url(#paint1_linear_1_6329)" shape-rendering="crispEdges"/>
<path d="M19.5 28.1899C19.5 27.0854 20.3954 26.1899 21.5 26.1899C22.6046 26.1899 23.5 27.0854 23.5 28.1899C23.5 29.2945 22.6046 30.1899 21.5 30.1899C20.3954 30.1899 19.5 29.2945 19.5 28.1899Z" stroke="#6366F1" stroke-opacity="0.56" shape-rendering="crispEdges"/>
</g>
<g filter="url(#filter2_d_1_6329)">
<rect x="28" y="37.6899" width="19" height="5" rx="2.5" transform="rotate(-90 28 37.6899)" fill="url(#paint2_linear_1_6329)" shape-rendering="crispEdges"/>
<rect x="28.5" y="37.1899" width="18" height="4" rx="2" transform="rotate(-90 28.5 37.1899)" stroke="#6366F1" stroke-opacity="0.56" shape-rendering="crispEdges"/>
</g>
<g filter="url(#filter3_d_1_6329)">
<path d="M39.5 36.6899C38.1193 36.6899 37 35.5707 37 34.1899L37 22.1899C37 20.8092 38.1193 19.6899 39.5 19.6899C40.8807 19.6899 42 20.8092 42 22.1899L42 34.1899C42 35.5707 40.8807 36.6899 39.5 36.6899Z" fill="url(#paint3_linear_1_6329)" shape-rendering="crispEdges"/>
<path d="M37.5 34.1899L37.5 22.1899C37.5 21.0854 38.3954 20.1899 39.5 20.1899C40.6046 20.1899 41.5 21.0854 41.5 22.1899L41.5 34.1899C41.5 35.2945 40.6046 36.1899 39.5 36.1899C38.3954 36.1899 37.5 35.2945 37.5 34.1899Z" stroke="#6366F1" stroke-opacity="0.56" shape-rendering="crispEdges"/>
</g>
<path d="M46.5 39.1899L46.5 17.1899C46.5 16.0854 47.3954 15.1899 48.5 15.1899C49.6046 15.1899 50.5 16.0854 50.5 17.1899L50.5 39.1899C50.5 40.2945 49.6046 41.1899 48.5 41.1899C47.3954 41.1899 46.5 40.2945 46.5 39.1899Z" fill="url(#paint4_linear_1_6329)" stroke="url(#paint5_linear_1_6329)"/>
<g filter="url(#filter4_d_1_6329)">
<path d="M57.5 37.6899C56.1193 37.6899 55 36.5707 55 35.1899L55 21.1899C55 19.8092 56.1193 18.6899 57.5 18.6899C58.8807 18.6899 60 19.8092 60 21.1899L60 35.1899C60 36.5707 58.8807 37.6899 57.5 37.6899Z" fill="url(#paint6_linear_1_6329)" shape-rendering="crispEdges"/>
<path d="M55.5 35.1899L55.5 21.1899C55.5 20.0854 56.3954 19.1899 57.5 19.1899C58.6046 19.1899 59.5 20.0854 59.5 21.1899L59.5 35.1899C59.5 36.2945 58.6046 37.1899 57.5 37.1899C56.3954 37.1899 55.5 36.2945 55.5 35.1899Z" stroke="#6366F1" stroke-opacity="0.56" shape-rendering="crispEdges"/>
</g>
<g filter="url(#filter5_d_1_6329)">
<path d="M66.5 33.6899C65.1193 33.6899 64 32.5707 64 31.1899L64 25.1899C64 23.8092 65.1193 22.6899 66.5 22.6899C67.8807 22.6899 69 23.8092 69 25.1899L69 31.1899C69 32.5707 67.8807 33.6899 66.5 33.6899Z" fill="url(#paint7_linear_1_6329)" shape-rendering="crispEdges"/>
<path d="M64.5 31.1899L64.5 25.1899C64.5 24.0854 65.3954 23.1899 66.5 23.1899C67.6046 23.1899 68.5 24.0854 68.5 25.1899L68.5 31.1899C68.5 32.2945 67.6046 33.1899 66.5 33.1899C65.3954 33.1899 64.5 32.2945 64.5 31.1899Z" stroke="#6366F1" stroke-opacity="0.56" shape-rendering="crispEdges"/>
</g>
<g filter="url(#filter6_d_1_6329)">
<path d="M75.5 30.6899C74.1193 30.6899 73 29.5707 73 28.1899C73 26.8092 74.1193 25.6899 75.5 25.6899C76.8807 25.6899 78 26.8092 78 28.1899C78 29.5707 76.8807 30.6899 75.5 30.6899Z" fill="url(#paint8_linear_1_6329)" shape-rendering="crispEdges"/>
<path d="M73.5 28.1899C73.5 27.0854 74.3954 26.1899 75.5 26.1899C76.6046 26.1899 77.5 27.0854 77.5 28.1899C77.5 29.2945 76.6046 30.1899 75.5 30.1899C74.3954 30.1899 73.5 29.2945 73.5 28.1899Z" stroke="#6366F1" stroke-opacity="0.56" shape-rendering="crispEdges"/>
</g>
</g>
<path d="M40.25 55.1899H55.75C58.9256 55.1899 61.5 57.7643 61.5 60.9399V76.4399C61.5 79.6156 58.9256 82.1899 55.75 82.1899H40.25C37.0744 82.1899 34.5 79.6156 34.5 76.4399V60.9399C34.5 57.7643 37.0744 55.1899 40.25 55.1899Z" fill="url(#paint9_linear_1_6329)"/>
<path d="M40.25 55.1899H55.75C58.9256 55.1899 61.5 57.7643 61.5 60.9399V76.4399C61.5 79.6156 58.9256 82.1899 55.75 82.1899H40.25C37.0744 82.1899 34.5 79.6156 34.5 76.4399V60.9399C34.5 57.7643 37.0744 55.1899 40.25 55.1899Z" stroke="url(#paint10_linear_1_6329)"/>
<rect x="44" y="60.6899" width="8" height="12" rx="4" fill="url(#paint11_linear_1_6329)"/>
<path d="M41 65.6899V68.6899C41 72.5559 44.134 75.6899 48 75.6899C51.866 75.6899 55 72.5559 55 68.6899V65.6899" stroke="url(#paint12_linear_1_6329)" stroke-width="1.5" stroke-linecap="round"/>
<path d="M44 77.6899H52" stroke="url(#paint13_linear_1_6329)" stroke-width="1.5" stroke-linecap="round"/>
</g>
<defs>
<filter id="filter0_d_1_6329" x="-4" y="-2.06006" width="105" height="63" filterUnits="userSpaceOnUse" color-interpolation-filters="sRGB">
<feFlood flood-opacity="0" result="BackgroundImageFix"/>
<feColorMatrix in="SourceAlpha" type="matrix" values="0 0 0 0 0 0 0 0 0 0 0 0 0 0 0 0 0 0 127 0" result="hardAlpha"/>
<feOffset dy="1.25"/>
<feGaussianBlur stdDeviation="6"/>
<feComposite in2="hardAlpha" operator="out"/>
<feColorMatrix type="matrix" values="0 0 0 0 0.345098 0 0 0 0 0.352941 0 0 0 0 0.784314 0 0 0 0.5 0"/>
<feBlend mode="normal" in2="BackgroundImageFix" result="effect1_dropShadow_1_6329"/>
<feBlend mode="normal" in="SourceGraphic" in2="effect1_dropShadow_1_6329" result="shape"/>
</filter>
<filter id="filter1_d_1_6329" x="-31" y="13.1899" width="105" height="105" filterUnits="userSpaceOnUse" color-interpolation-filters="sRGB">
<feFlood flood-opacity="0" result="BackgroundImageFix"/>
<feColorMatrix in="SourceAlpha" type="matrix" values="0 0 0 0 0 0 0 0 0 0 0 0 0 0 0 0 0 0 127 0" result="hardAlpha"/>
<feMorphology radius="50" operator="erode" in="SourceAlpha" result="effect1_dropShadow_1_6329"/>
<feOffset dy="37.5"/>
<feGaussianBlur stdDeviation="50"/>
<feComposite in2="hardAlpha" operator="out"/>
<feColorMatrix type="matrix" values="0 0 0 0 0.388235 0 0 0 0 0.4 0 0 0 0 0.945098 0 0 0 0.4 0"/>
<feBlend mode="normal" in2="BackgroundImageFix" result="effect1_dropShadow_1_6329"/>
<feBlend mode="normal" in="SourceGraphic" in2="effect1_dropShadow_1_6329" result="shape"/>
</filter>
<filter id="filter2_d_1_6329" x="-22" y="6.18994" width="105" height="119" filterUnits="userSpaceOnUse" color-interpolation-filters="sRGB">
<feFlood flood-opacity="0" result="BackgroundImageFix"/>
<feColorMatrix in="SourceAlpha" type="matrix" values="0 0 0 0 0 0 0 0 0 0 0 0 0 0 0 0 0 0 127 0" result="hardAlpha"/>
<feMorphology radius="50" operator="erode" in="SourceAlpha" result="effect1_dropShadow_1_6329"/>
<feOffset dy="37.5"/>
<feGaussianBlur stdDeviation="50"/>
<feComposite in2="hardAlpha" operator="out"/>
<feColorMatrix type="matrix" values="0 0 0 0 0.388235 0 0 0 0 0.4 0 0 0 0 0.945098 0 0 0 0.4 0"/>
<feBlend mode="normal" in2="BackgroundImageFix" result="effect1_dropShadow_1_6329"/>
<feBlend mode="normal" in="SourceGraphic" in2="effect1_dropShadow_1_6329" result="shape"/>
</filter>
<filter id="filter3_d_1_6329" x="-13" y="7.18994" width="105" height="117" filterUnits="userSpaceOnUse" color-interpolation-filters="sRGB">
<feFlood flood-opacity="0" result="BackgroundImageFix"/>
<feColorMatrix in="SourceAlpha" type="matrix" values="0 0 0 0 0 0 0 0 0 0 0 0 0 0 0 0 0 0 127 0" result="hardAlpha"/>
<feMorphology radius="50" operator="erode" in="SourceAlpha" result="effect1_dropShadow_1_6329"/>
<feOffset dy="37.5"/>
<feGaussianBlur stdDeviation="50"/>
<feComposite in2="hardAlpha" operator="out"/>
<feColorMatrix type="matrix" values="0 0 0 0 0.388235 0 0 0 0 0.4 0 0 0 0 0.945098 0 0 0 0.4 0"/>
<feBlend mode="normal" in2="BackgroundImageFix" result="effect1_dropShadow_1_6329"/>
<feBlend mode="normal" in="SourceGraphic" in2="effect1_dropShadow_1_6329" result="shape"/>
</filter>
<filter id="filter4_d_1_6329" x="5" y="6.18994" width="105" height="119" filterUnits="userSpaceOnUse" color-interpolation-filters="sRGB">
<feFlood flood-opacity="0" result="BackgroundImageFix"/>
<feColorMatrix in="SourceAlpha" type="matrix" values="0 0 0 0 0 0 0 0 0 0 0 0 0 0 0 0 0 0 127 0" result="hardAlpha"/>
<feMorphology radius="50" operator="erode" in="SourceAlpha" result="effect1_dropShadow_1_6329"/>
<feOffset dy="37.5"/>
<feGaussianBlur stdDeviation="50"/>
<feComposite in2="hardAlpha" operator="out"/>
<feColorMatrix type="matrix" values="0 0 0 0 0.388235 0 0 0 0 0.4 0 0 0 0 0.945098 0 0 0 0.4 0"/>
<feBlend mode="normal" in2="BackgroundImageFix" result="effect1_dropShadow_1_6329"/>
<feBlend mode="normal" in="SourceGraphic" in2="effect1_dropShadow_1_6329" result="shape"/>
</filter>
<filter id="filter5_d_1_6329" x="14" y="10.1899" width="105" height="111" filterUnits="userSpaceOnUse" color-interpolation-filters="sRGB">
<feFlood flood-opacity="0" result="BackgroundImageFix"/>
<feColorMatrix in="SourceAlpha" type="matrix" values="0 0 0 0 0 0 0 0 0 0 0 0 0 0 0 0 0 0 127 0" result="hardAlpha"/>
<feMorphology radius="50" operator="erode" in="SourceAlpha" result="effect1_dropShadow_1_6329"/>
<feOffset dy="37.5"/>
<feGaussianBlur stdDeviation="50"/>
<feComposite in2="hardAlpha" operator="out"/>
<feColorMatrix type="matrix" values="0 0 0 0 0.388235 0 0 0 0 0.4 0 0 0 0 0.945098 0 0 0 0.4 0"/>
<feBlend mode="normal" in2="BackgroundImageFix" result="effect1_dropShadow_1_6329"/>
<feBlend mode="normal" in="SourceGraphic" in2="effect1_dropShadow_1_6329" result="shape"/>
</filter>
<filter id="filter6_d_1_6329" x="23" y="13.1899" width="105" height="105" filterUnits="userSpaceOnUse" color-interpolation-filters="sRGB">
<feFlood flood-opacity="0" result="BackgroundImageFix"/>
<feColorMatrix in="SourceAlpha" type="matrix" values="0 0 0 0 0 0 0 0 0 0 0 0 0 0 0 0 0 0 127 0" result="hardAlpha"/>
<feMorphology radius="50" operator="erode" in="SourceAlpha" result="effect1_dropShadow_1_6329"/>
<feOffset dy="37.5"/>
<feGaussianBlur stdDeviation="50"/>
<feComposite in2="hardAlpha" operator="out"/>
<feColorMatrix type="matrix" values="0 0 0 0 0.388235 0 0 0 0 0.4 0 0 0 0 0.945098 0 0 0 0.4 0"/>
<feBlend mode="normal" in2="BackgroundImageFix" result="effect1_dropShadow_1_6329"/>
<feBlend mode="normal" in="SourceGraphic" in2="effect1_dropShadow_1_6329" result="shape"/>
</filter>
<linearGradient id="paint0_linear_1_6329" x1="48.5" y1="8.68994" x2="48.5" y2="47.6899" gradientUnits="userSpaceOnUse">
<stop stop-color="#2D2D2F"/>
<stop offset="1" stop-color="#1E1E20"/>
</linearGradient>
<linearGradient id="paint1_linear_1_6329" x1="19" y1="28.1899" x2="24" y2="28.1899" gradientUnits="userSpaceOnUse">
<stop stop-color="#6366F1" stop-opacity="0.1"/>
<stop offset="1" stop-color="#8B5CF6" stop-opacity="0.16"/>
</linearGradient>
<linearGradient id="paint2_linear_1_6329" x1="37.5" y1="37.6899" x2="37.5" y2="42.6899" gradientUnits="userSpaceOnUse">
<stop stop-color="#6366F1" stop-opacity="0.1"/>
<stop offset="1" stop-color="#8B5CF6" stop-opacity="0.16"/>
</linearGradient>
<linearGradient id="paint3_linear_1_6329" x1="37" y1="28.1899" x2="42" y2="28.1899" gradientUnits="userSpaceOnUse">
<stop stop-color="#6366F1" stop-opacity="0.1"/>
<stop offset="1" stop-color="#8B5CF6" stop-opacity="0.16"/>
</linearGradient>
<linearGradient id="paint4_linear_1_6329" x1="46.1786" y1="38.3149" x2="54.039" y2="34.5719" gradientUnits="userSpaceOnUse">
<stop stop-color="#6366F1"/>
<stop offset="1" stop-color="#6366F1" stop-opacity="0.6"/>
</linearGradient>
<linearGradient id="paint5_linear_1_6329" x1="46" y1="28.1899" x2="51" y2="28.1899" gradientUnits="userSpaceOnUse">
<stop stop-color="#6366F1"/>
<stop offset="1" stop-color="white" stop-opacity="0.12"/>
</linearGradient>
<linearGradient id="paint6_linear_1_6329" x1="55" y1="28.1899" x2="60" y2="28.1899" gradientUnits="userSpaceOnUse">
<stop stop-color="#6366F1" stop-opacity="0.1"/>
<stop offset="1" stop-color="#8B5CF6" stop-opacity="0.16"/>
</linearGradient>
<linearGradient id="paint7_linear_1_6329" x1="64" y1="28.1899" x2="69" y2="28.1899" gradientUnits="userSpaceOnUse">
<stop stop-color="#6366F1" stop-opacity="0.1"/>
<stop offset="1" stop-color="#8B5CF6" stop-opacity="0.16"/>
</linearGradient>
<linearGradient id="paint8_linear_1_6329" x1="73" y1="28.1899" x2="78" y2="28.1899" gradientUnits="userSpaceOnUse">
<stop stop-color="#6366F1" stop-opacity="0.1"/>
<stop offset="1" stop-color="#8B5CF6" stop-opacity="0.16"/>
</linearGradient>
<linearGradient id="paint9_linear_1_6329" x1="37.5" y1="55.6899" x2="55.7413" y2="62.7838" gradientUnits="userSpaceOnUse">
<stop stop-color="#6366F1"/>
<stop offset="1" stop-color="#6366F1" stop-opacity="0.6"/>
</linearGradient>
<linearGradient id="paint10_linear_1_6329" x1="48" y1="54.6899" x2="48" y2="82.6899" gradientUnits="userSpaceOnUse">
<stop stop-color="#6366F1"/>
<stop offset="1" stop-color="white" stop-opacity="0.12"/>
</linearGradient>
<linearGradient id="paint11_linear_1_6329" x1="48" y1="60.6899" x2="48" y2="72.6899" gradientUnits="userSpaceOnUse">
<stop stop-color="white"/>
<stop offset="1" stop-color="white" stop-opacity="0.5"/>
</linearGradient>
<linearGradient id="paint12_linear_1_6329" x1="48" y1="65.6899" x2="48" y2="75.6899" gradientUnits="userSpaceOnUse">
<stop stop-color="white"/>
<stop offset="1" stop-color="white" stop-opacity="0.5"/>
</linearGradient>
<linearGradient id="paint13_linear_1_6329" x1="48" y1="77.6899" x2="48" y2="78.6899" gradientUnits="userSpaceOnUse">
<stop stop-color="white"/>
<stop offset="1" stop-color="white" stop-opacity="0.5"/>
</linearGradient>
<clipPath id="clip0_1_6329">
<rect width="96" height="96" fill="white"/>
</clipPath>
</defs>
</svg>
